<svg xmlns="http://www.w3.org/2000/svg" fill="none" height="100" viewBox="0 0 100 100" width="100"><circle cx="50" cy="50" r="48" stroke="white" stroke-width="4"></circle> <path d="M77.5999 70.302H77.3379C74.5269 70.059 72.0019 69.71 70.0139 68.835C67.4109 69.98 63.8879 70.685 60.0069 70.685C56.1259 70.685 52.6029 69.98 49.9999 68.835C47.3969 69.98 43.8749 70.685 39.9929 70.685C36.1119 70.685 32.5889 69.98 29.9859 68.835C27.9969 69.71 25.4719 70.059 22.6599 70.302H22.3999M62.4999 81.795H62.2249C61.2939 81.928 60.3269 82.099 59.3339 82.099C55.7659 82.099 52.5289 81.657 50.1359 80.24C47.7429 81.657 44.5059 82.099 40.9379 82.099C39.8479 82.099 38.7879 81.913 37.7739 81.754L37.4999 81.752M85.0039 58.626C80.4719 58.626 76.3589 57.435 73.3199 55.5C70.2809 57.435 66.1679 58.626 61.6359 58.626C57.1039 58.626 52.9909 57.435 49.9519 55.5C46.9129 57.435 42.7999 58.626 38.2679 58.626C33.7359 58.626 29.6229 57.435 26.5839 55.5C23.5449 57.435 19.4319 58.626 14.8999 58.626" stroke="white" stroke-miterlimit="10" stroke-width="4.2"></path></svg>